<?xml version="1.0" encoding="UTF-8"?>
<svg version="1.1" xmlns="http://www.w3.org/2000/svg" xmlns:xlink="http://www.w3.org/1999/xlink">
<defs>

</defs>
<symbol id="i-ok" viewBox="0 0 40 40" xmlns="http://www.w3.org/2000/svg"><path d="M20.181 10.755a2.89 2.89 0 012.888 2.888 2.89 2.89 0 01-2.888 2.886 2.89 2.89 0 01-2.887-2.886 2.89 2.89 0 012.887-2.888zm0 9.86c3.847 0 6.975-3.127 6.975-6.972a6.982 6.982 0 00-6.975-6.975 6.982 6.982 0 00-6.974 6.975c0 3.845 3.128 6.972 6.974 6.972zm2.822 5.689a13.055 13.055 0 004.05-1.677 2.042 2.042 0 10-2.177-3.46 8.856 8.856 0 01-9.39 0 2.042 2.042 0 00-3.08 2.184c.12.528.445.987.904 1.276a13.067 13.067 0 004.049 1.677l-3.899 3.899a2.044 2.044 0 002.89 2.89l3.83-3.832 3.833 3.832a2.04 2.04 0 002.888 0 2.04 2.04 0 000-2.89l-3.898-3.9z"/></symbol>
<symbol id="i-rt" viewBox="0 0 40 40" xmlns="http://www.w3.org/2000/svg"><path d="M29.73 13.01a2.338 2.338 0 100-4.677 2.338 2.338 0 000 4.677z"/><path fill-rule="evenodd" clip-rule="evenodd" d="M11.215 30.91H6.667V12.755h17.282a4.417 4.417 0 014.417 4.417v3.637a4.159 4.159 0 01-3.802 4.144l4.386 5.991h-5.067l-4.035-5.977h-8.635l.002 5.944zm-.033-14.161v4.222h11.434a1.17 1.17 0 001.17-1.17v-1.884a1.169 1.169 0 00-1.17-1.168H11.182z"/></symbol>
<symbol id="i-tg" viewBox="0 0 40 40" xmlns="http://www.w3.org/2000/svg"><path d="M29.577 10.185s2.316-.905 2.121 1.29c-.064.904-.643 4.064-1.093 7.485L29.06 29.09s-.128 1.484-1.287 1.743c-1.158.258-2.895-.904-3.217-1.161-.258-.195-4.826-3.1-6.435-4.519-.452-.386-.965-1.16.064-2.064l6.757-6.452c.772-.774 1.544-2.581-1.673-.388l-9.009 6.13s-1.031.646-2.961.065l-4.183-1.29s-1.544-.968 1.096-1.936c6.434-3.033 14.35-6.13 21.365-9.033z"/></symbol>
<symbol id="i-vk" viewBox="0 0 40 40" xmlns="http://www.w3.org/2000/svg"><path d="M31.316 22.785c1.078 1 2.215 1.94 3.182 3.043.428.487.833.993 1.143 1.562.438.807.04 1.695-.722 1.744l-4.736-.003c-1.222.097-2.196-.37-3.015-1.166-.656-.633-1.263-1.307-1.896-1.965a4.41 4.41 0 00-.852-.72c-.645-.398-1.207-.276-1.576.365-.377.65-.462 1.374-.499 2.1-.052 1.06-.388 1.339-1.508 1.386-2.395.107-4.666-.237-6.777-1.385-1.861-1.01-3.305-2.44-4.56-4.055-2.447-3.148-4.32-6.61-6.004-10.166-.377-.8-.1-1.23.83-1.247 1.545-.027 3.091-.027 4.636-.001.628.008 1.044.351 1.287.915a26.91 26.91 0 003.143 5.533c.343.458.69.917 1.188 1.24.55.357.967.239 1.226-.342.163-.369.235-.765.271-1.162.122-1.356.14-2.713-.075-4.068-.132-.843-.633-1.391-1.52-1.551-.452-.08-.386-.24-.166-.487.382-.423.739-.687 1.452-.687h5.354c.842.158 1.03.518 1.145 1.324l.005 5.65c-.01.311.164 1.236.755 1.443.473.146.784-.212 1.07-.497 1.281-1.294 2.194-2.82 3.012-4.402.363-.695.674-1.417.977-2.139.224-.536.574-.8 1.21-.788l5.152.005c.153 0 .307 0 .455.027.87.139 1.106.493.839 1.3-.423 1.263-1.246 2.317-2.05 3.374-.858 1.13-1.776 2.221-2.629 3.357-.782 1.038-.721 1.56.253 2.463z"/></symbol>
<symbol id="i-yt" viewBox="0 0 40 40" xmlns="http://www.w3.org/2000/svg"><path fill-rule="evenodd" clip-rule="evenodd" d="M10.886 11.836c3.169-.13 6.391-.174 9.696-.167 3.31-.005 6.532.041 9.695.167 2.218 0 4.044 1.746 4.044 3.857.135 1.67.179 3.353.174 5.03a61.375 61.375 0 01-.174 4.987c0 2.117-1.826 3.856-4.044 3.856-3.163.127-6.386.174-9.695.169-3.305.005-6.527-.042-9.696-.167-2.217 0-4.043-1.74-4.043-3.858a58.901 58.901 0 01-.174-4.987 62.214 62.214 0 01.174-5.03c0-2.111 1.83-3.857 4.043-3.857zm13.788 8.866l-6.548-3.696v7.391l6.548-3.695z"/></symbol>
</svg>